<svg width="24" height="18" viewBox="0 0 24 18" fill="none" xmlns="http://www.w3.org/2000/svg">
<path d="M13.2688 0.668898C13.5688 0.368944 13.9757 0.200439 14.4 0.200439C14.8243 0.200439 15.2311 0.368944 15.5312 0.668898L22.7312 7.8689C23.0311 8.16894 23.1996 8.57584 23.1996 9.0001C23.1996 9.42436 23.0311 9.83125 22.7312 10.1313L15.5312 17.3313C15.2294 17.6228 14.8253 17.784 14.4057 17.7804C13.9862 17.7767 13.5849 17.6085 13.2883 17.3118C12.9916 17.0152 12.8234 16.6139 12.8197 16.1943C12.8161 15.7748 12.9773 15.3707 13.2688 15.0689L17.6 10.6001H2.39999C1.97564 10.6001 1.56868 10.4315 1.26862 10.1315C0.968559 9.83141 0.799988 9.42444 0.799988 9.0001C0.799988 8.57575 0.968559 8.16879 1.26862 7.86873C1.56868 7.56867 1.97564 7.4001 2.39999 7.4001H17.6L13.2688 2.9313C12.9688 2.63125 12.8003 2.22436 12.8003 1.8001C12.8003 1.37584 12.9688 0.968942 13.2688 0.668898Z" fill="white"/>
</svg>
