<svg width="24" height="24" viewBox="0 0 24 24" fill="none" xmlns="http://www.w3.org/2000/svg">
<path d="M10.7312 3.6689C10.4312 3.36894 10.0243 3.20044 9.60001 3.20044C9.17575 3.20044 8.76886 3.36894 8.46881 3.6689L1.26881 10.8689C0.968859 11.1689 0.800354 11.5758 0.800354 12.0001C0.800354 12.4244 0.968859 12.8313 1.26881 13.1313L8.46881 20.3313C8.77058 20.6228 9.17474 20.784 9.59425 20.7804C10.0138 20.7767 10.4151 20.6085 10.7117 20.3118C11.0084 20.0152 11.1766 19.6139 11.1803 19.1943C11.1839 18.7748 11.0227 18.3707 10.7312 18.0689L6.40001 13.6001H21.6C22.0244 13.6001 22.4313 13.4315 22.7314 13.1315C23.0314 12.8314 23.2 12.4244 23.2 12.0001C23.2 11.5758 23.0314 11.1688 22.7314 10.8687C22.4313 10.5687 22.0244 10.4001 21.6 10.4001H6.40001L10.7312 5.9313C11.0312 5.63125 11.1997 5.22436 11.1997 4.8001C11.1997 4.37584 11.0312 3.96894 10.7312 3.6689Z" fill="white"/>
</svg>
